<?xml version="1.0" encoding="UTF-8"?>
<svg xmlns="http://www.w3.org/2000/svg" version="1.1" viewBox="0 0 1442.62 325.36">
  <defs>
    <style>
      .cls-1 {
        fill: #000;
      }

      .cls-1, .cls-2 {
        stroke-width: 0px;
      }

      .cls-3 {
        display: none;
      }

      .cls-2 {
        fill: #f39837;
      }
    </style>
  </defs>
  <g id="Ebene_2" data-name="Ebene 2" class="cls-3">
    <rect class="cls-2" x="551.39" y="108.45" width="81.34" height="108.45"/>
    <rect class="cls-2" y="0" width="81.34" height="108.45"/>
    <rect class="cls-2" x="1361.28" y="0" width="81.34" height="108.45"/>
    <rect class="cls-2" y="216.91" width="81.34" height="108.45"/>
    <rect class="cls-2" x="1361.28" y="216.91" width="81.34" height="108.45"/>
    <rect class="cls-2" x="284.83" y="108.45" width="81.34" height="108.45"/>
  </g>
  <g id="Ebene_1" data-name="Ebene 1">
    <g>
      <path class="cls-1" d="M81.34,108.45h48.65c25.25,0,42.76,12.24,42.76,37.96s-17.51,37.96-42.76,37.96h-24.79v32.54h-23.86v-108.46ZM105.2,127.81v37.19h21.69c13.32,0,21.54-4.8,21.54-18.59s-8.21-18.59-21.54-18.59h-21.69Z"/>
      <path class="cls-1" d="M207.76,151.83h52.99v-43.38h23.86v108.46h-23.86v-44.93h-52.99v44.93h-23.86v-108.46h23.86v43.38Z"/>
      <path class="cls-1" d="M441.71,108.45v19.37h-34.86v89.09h-23.86v-89.09h-34.71v-19.37h93.43Z"/>
      <path class="cls-1" d="M499.96,126.26c-20.45,0-33.78,12.86-33.78,36.41s12.7,35.64,32.38,35.64c16.11,0,28.82-8.68,29.59-26.34h-43.07v-20.14h66.16v65.07h-19.06l-1.86-22.78c-6.04,16.42-20.76,24.33-38.27,24.33-27.27,0-50.04-18.9-50.04-55.78s26.03-56.55,57.95-56.55c29.75,0,46.17,13.63,50.2,33.31h-24.79c-2.79-7.75-11.16-13.17-25.41-13.17Z"/>
    </g>
    <g>
      <path class="cls-1" d="M632.79,108.45h19.53c10.14,0,17.17,4.91,17.17,15.24s-7.03,15.24-17.17,15.24h-9.95v13.06h-9.58v-43.55ZM642.37,116.23v14.93h8.71c5.35,0,8.65-1.93,8.65-7.47s-3.3-7.46-8.65-7.46h-8.71Z"/>
      <path class="cls-1" d="M693.07,152l-1.8-5.1c-1.87,3.67-5.54,5.72-10.14,5.72-6.03,0-10.08-3.23-10.08-9.08,0-7.09,5.6-8.71,10.82-9.52,4.67-.81,9.08-1,9.08-3.98,0-2.3-1.74-3.3-4.85-3.3s-4.73,1.12-4.85,3.48h-9.33c0-6.84,5.35-10.26,14.18-10.26s14.18,3.48,14.18,10.39v12.94c0,3.98,0,4.54,1.87,8.71h-9.08ZM684.3,115.91h-7.78v-7.47h7.78v7.47ZM684.73,145.9c3.17,0,6.22-2.36,6.22-6.84v-3.48c-1.37.81-2.92,1.37-4.48,1.87-3.11,1.06-5.97,2.05-5.97,4.85,0,2.55,1.56,3.61,4.23,3.61ZM697.05,115.91h-7.78v-7.47h7.78v7.47Z"/>
      <path class="cls-1" d="M727.28,146.09c-2.12,4.6-5.91,6.84-10.64,6.84-7.22,0-12.38-5.23-12.38-16.49s5.16-16.49,12.38-16.49c4.35,0,7.96,1.87,10.14,5.85v-17.36h9.33v43.55h-8.83v-5.91ZM713.72,136.44c0,5.97,2.43,9.02,6.53,9.02s6.53-2.99,6.53-9.02-2.36-9.02-6.53-9.02-6.53,3.05-6.53,9.02Z"/>
      <path class="cls-1" d="M761.87,152l-1.8-5.1c-1.87,3.67-5.54,5.72-10.14,5.72-6.03,0-10.08-3.23-10.08-9.08,0-7.09,5.6-8.71,10.82-9.52,4.67-.81,9.08-1,9.08-3.98,0-2.3-1.74-3.3-4.85-3.3s-4.73,1.12-4.85,3.48h-9.33c0-6.84,5.35-10.26,14.18-10.26s14.18,3.48,14.18,10.39v12.94c0,3.98,0,4.54,1.87,8.71h-9.08ZM753.53,145.9c3.17,0,6.22-2.36,6.22-6.84v-3.48c-1.37.81-2.92,1.37-4.48,1.87-3.11,1.06-5.97,2.05-5.97,4.85,0,2.55,1.56,3.61,4.23,3.61Z"/>
      <path class="cls-1" d="M773.06,134.89c0-9.64,5.16-14.93,12.38-14.93,4.73,0,8.52,2.24,10.64,6.47v-5.54h8.83v30.61c0,9.08-6.1,13.87-15.93,13.87s-15.8-4.85-15.8-13.38h9.33c0,3.61,1.93,6.22,6.47,6.22s6.59-2.49,6.59-6.72v-7.28c-2.18,3.67-5.79,5.6-10.14,5.6-7.22,0-12.38-5.29-12.38-14.93ZM795.58,134.89c0-5.41-2.36-8.09-6.53-8.09s-6.53,2.67-6.53,8.09,2.43,8.09,6.53,8.09,6.53-2.67,6.53-8.09Z"/>
      <path class="cls-1" d="M808.58,136.44c0-10.95,6.59-16.49,15.93-16.49s15.8,5.54,15.8,16.49-6.59,16.49-15.8,16.49-15.93-5.54-15.93-16.49ZM830.85,136.44c0-5.97-2.36-9.02-6.35-9.02s-6.41,2.99-6.41,9.02,2.36,9.02,6.41,9.02,6.35-3.05,6.35-9.02Z"/>
      <path class="cls-1" d="M843.35,134.89c0-9.64,5.16-14.93,12.38-14.93,4.73,0,8.52,2.24,10.64,6.47v-5.54h8.83v30.61c0,9.08-6.1,13.87-15.93,13.87s-15.8-4.85-15.8-13.38h9.33c0,3.61,1.93,6.22,6.47,6.22s6.59-2.49,6.59-6.72v-7.28c-2.18,3.67-5.79,5.6-10.14,5.6-7.22,0-12.38-5.29-12.38-14.93ZM865.87,134.89c0-5.41-2.36-8.09-6.53-8.09s-6.53,2.67-6.53,8.09,2.43,8.09,6.53,8.09,6.53-2.67,6.53-8.09Z"/>
      <path class="cls-1" d="M889.76,116.54h-9.33v-8.09h9.33v8.09ZM889.76,152h-9.33v-31.1h9.33v31.1Z"/>
      <path class="cls-1" d="M904.5,139.43c-4.91-.93-10.2-2.61-10.2-9.64,0-6.22,4.85-9.83,12.69-9.83,9.02,0,13.44,4.17,13.56,10.26h-8.65c-.12-2.24-1.93-3.61-4.91-3.61-2.49,0-4.17,1.12-4.17,2.8,0,2.55,3.86,2.86,8.03,3.67,4.91,1,10.2,2.61,10.2,9.7,0,6.59-5.1,10.14-13.31,10.14-8.83,0-14.18-4.11-14.18-10.58h8.58c.12,2.43,2.24,3.92,5.6,3.92,2.86,0,4.79-1.12,4.79-3.11,0-2.61-3.86-2.86-8.03-3.73Z"/>
      <path class="cls-1" d="M939.4,145.46c3.42,0,5.35-2.36,5.6-6.22h9.46c-.31,8.65-5.91,13.69-15.05,13.69s-15.93-5.54-15.93-16.49,6.66-16.49,15.93-16.49,14.74,5.04,15.05,13.69h-9.46c-.25-3.86-2.18-6.22-5.6-6.22-3.86,0-6.47,3.05-6.47,9.02s2.61,9.02,6.47,9.02Z"/>
      <path class="cls-1" d="M987.55,152h-9.33v-18.54c0-3.86-1.87-5.66-4.98-5.66-3.36,0-5.6,2.24-5.6,6.59v17.61h-9.33v-43.55h9.33v17.73c1.8-4.04,5.41-6.22,9.89-6.22,5.97,0,10.02,3.67,10.02,11.63v20.4Z"/>
      <path class="cls-1" d="M1006.89,152.93c-9.21,0-15.93-5.41-15.93-16.49s6.72-16.49,15.93-16.49,15.37,5.54,15.37,16.49c0,.87-.06,1.62-.06,2.36h-22.27c.31,4.79,3.11,7.09,6.97,7.09,3.17,0,4.85-1.37,5.47-3.55h9.33c-.93,6.41-6.78,10.58-14.81,10.58ZM1000.05,133.21h13.25c-.5-4.23-2.99-6.22-6.41-6.22-3.67,0-6.35,1.99-6.84,6.22Z"/>
      <path class="cls-1" d="M1047.89,125.87h21.28v-17.42h9.58v43.55h-9.58v-18.04h-21.28v18.04h-9.58v-43.55h9.58v17.42Z"/>
      <path class="cls-1" d="M1082.28,136.44c0-10.95,6.59-16.49,15.93-16.49s15.8,5.54,15.8,16.49-6.59,16.49-15.8,16.49-15.93-5.54-15.93-16.49ZM1104.56,136.44c0-5.97-2.36-9.02-6.35-9.02s-6.41,2.99-6.41,9.02,2.36,9.02,6.41,9.02,6.35-3.05,6.35-9.02Z"/>
      <path class="cls-1" d="M1132.73,145.46c3.42,0,5.35-2.36,5.6-6.22h9.46c-.31,8.65-5.91,13.69-15.05,13.69s-15.93-5.54-15.93-16.49,6.66-16.49,15.93-16.49,14.74,5.04,15.05,13.69h-9.46c-.25-3.86-2.18-6.22-5.6-6.22-3.86,0-6.47,3.05-6.47,9.02s2.61,9.02,6.47,9.02Z"/>
      <path class="cls-1" d="M1180.88,152h-9.33v-18.54c0-3.86-1.87-5.66-4.98-5.66-3.36,0-5.6,2.24-5.6,6.59v17.61h-9.33v-43.55h9.33v17.73c1.8-4.04,5.41-6.22,9.89-6.22,5.97,0,10.02,3.67,10.02,11.63v20.4Z"/>
      <path class="cls-1" d="M1195.31,139.43c-4.91-.93-10.2-2.61-10.2-9.64,0-6.22,4.85-9.83,12.69-9.83,9.02,0,13.44,4.17,13.56,10.26h-8.65c-.12-2.24-1.93-3.61-4.91-3.61-2.49,0-4.17,1.12-4.17,2.8,0,2.55,3.86,2.86,8.03,3.67,4.91,1,10.2,2.61,10.2,9.7,0,6.59-5.1,10.14-13.31,10.14-8.83,0-14.18-4.11-14.18-10.58h8.58c.12,2.43,2.24,3.92,5.6,3.92,2.86,0,4.79-1.12,4.79-3.11,0-2.61-3.86-2.86-8.03-3.73Z"/>
      <path class="cls-1" d="M1230.21,145.46c3.42,0,5.35-2.36,5.6-6.22h9.46c-.31,8.65-5.91,13.69-15.05,13.69s-15.93-5.54-15.93-16.49,6.66-16.49,15.93-16.49,14.74,5.04,15.05,13.69h-9.46c-.25-3.86-2.18-6.22-5.6-6.22-3.86,0-6.47,3.05-6.47,9.02s2.61,9.02,6.47,9.02Z"/>
      <path class="cls-1" d="M1278.36,152h-9.33v-18.54c0-3.86-1.87-5.66-4.98-5.66-3.36,0-5.6,2.24-5.6,6.59v17.61h-9.33v-43.55h9.33v17.73c1.8-4.04,5.41-6.22,9.89-6.22,5.97,0,10.02,3.67,10.02,11.63v20.4Z"/>
      <path class="cls-1" d="M1283.09,120.89h9.33v18.85c0,3.79,1.74,5.54,4.73,5.54,3.23,0,5.35-2.24,5.35-6.47v-17.92h9.33v31.1h-8.83v-5.47c-1.74,4.23-5.41,6.41-9.95,6.41-5.91,0-9.95-3.67-9.95-11.51v-20.53Z"/>
      <path class="cls-1" d="M1326.26,152h-9.33v-43.55h9.33v43.55Z"/>
      <path class="cls-1" d="M1345.91,152.93c-9.21,0-15.93-5.41-15.93-16.49s6.72-16.49,15.93-16.49,15.37,5.54,15.37,16.49c0,.87-.06,1.62-.06,2.36h-22.27c.31,4.79,3.11,7.09,6.97,7.09,3.17,0,4.85-1.37,5.47-3.55h9.33c-.93,6.41-6.78,10.58-14.81,10.58ZM1339.07,133.21h13.25c-.5-4.23-2.99-6.22-6.41-6.22-3.67,0-6.35,1.99-6.84,6.22Z"/>
      <path class="cls-1" d="M667.69,173.35v7.78h-14v35.77h-9.58v-35.77h-13.94v-7.78h37.51Z"/>
      <path class="cls-1" d="M699.97,216.9h-9.33v-18.54c0-3.86-1.87-5.66-4.98-5.66-3.36,0-5.6,2.24-5.6,6.59v17.61h-9.33v-43.55h9.33v17.73c1.8-4.04,5.41-6.22,9.89-6.22,5.97,0,10.02,3.67,10.02,11.63v20.41Z"/>
      <path class="cls-1" d="M704.08,185.79h9.33v18.85c0,3.79,1.74,5.54,4.73,5.54,3.23,0,5.35-2.24,5.35-6.47v-17.92h9.33v31.1h-8.83v-5.47c-1.74,4.23-5.41,6.41-9.95,6.41-5.91,0-9.95-3.67-9.95-11.51v-20.53Z"/>
      <path class="cls-1" d="M747.25,202.21v14.68h-9.33v-31.1h8.52v7.22c1.56-5.1,4.85-7.53,9.21-7.53,1,0,1.74.12,2.43.31v8.46c-.81-.19-1.74-.31-2.92-.31-4.91,0-7.9,2.55-7.9,8.27Z"/>
      <path class="cls-1" d="M760,199.79c0-9.64,5.16-14.93,12.38-14.93,4.73,0,8.52,2.24,10.64,6.47v-5.54h8.83v30.61c0,9.08-6.1,13.87-15.93,13.87s-15.8-4.85-15.8-13.38h9.33c0,3.61,1.93,6.22,6.47,6.22s6.59-2.49,6.59-6.72v-7.28c-2.18,3.67-5.79,5.6-10.14,5.6-7.22,0-12.38-5.29-12.38-14.93ZM782.52,199.79c0-5.41-2.36-8.09-6.53-8.09s-6.53,2.68-6.53,8.09,2.43,8.09,6.53,8.09,6.53-2.68,6.53-8.09Z"/>
      <path class="cls-1" d="M817.29,216.9l-1.8-5.1c-1.87,3.67-5.54,5.72-10.14,5.72-6.03,0-10.08-3.23-10.08-9.08,0-7.09,5.6-8.71,10.82-9.52,4.67-.81,9.08-1,9.08-3.98,0-2.3-1.74-3.3-4.85-3.3s-4.73,1.12-4.85,3.48h-9.33c0-6.84,5.35-10.26,14.18-10.26s14.18,3.48,14.18,10.39v12.94c0,3.98,0,4.54,1.87,8.71h-9.08ZM808.96,210.8c3.17,0,6.22-2.36,6.22-6.84v-3.48c-1.37.81-2.92,1.37-4.48,1.87-3.11,1.06-5.97,2.05-5.97,4.85,0,2.55,1.56,3.61,4.23,3.61Z"/>
      <path class="cls-1" d="M829.23,185.79h9.33v18.85c0,3.79,1.74,5.54,4.73,5.54,3.23,0,5.35-2.24,5.35-6.47v-17.92h9.33v31.1h-8.83v-5.47c-1.74,4.23-5.41,6.41-9.95,6.41-5.91,0-9.95-3.67-9.95-11.51v-20.53Z"/>
    </g>
  </g>
</svg>