<?xml version="1.0" encoding="UTF-8" standalone="no"?>
<svg
   xmlns:dc="http://purl.org/dc/elements/1.1/"
   xmlns:cc="http://creativecommons.org/ns#"
   xmlns:rdf="http://www.w3.org/1999/02/22-rdf-syntax-ns#"
   xmlns:svg="http://www.w3.org/2000/svg"
   xmlns="http://www.w3.org/2000/svg"
   xmlns:sodipodi="http://sodipodi.sourceforge.net/DTD/sodipodi-0.dtd"
   xmlns:inkscape="http://www.inkscape.org/namespaces/inkscape"
   version="1.1"
   viewBox="0 0 1279.9399 124.15"
   id="svg997"
   sodipodi:docname="PHTG_Logo-Subline_horizontal_DE_RGB_Schwarz-cut.svg"
   width="1279.9399"
   height="124.15"
   inkscape:version="0.92.4 (5da689c313, 2019-01-14)">
  <metadata
     id="metadata1001">
    <rdf:RDF>
      <cc:Work
         rdf:about="">
        <dc:format>image/svg+xml</dc:format>
        <dc:type
           rdf:resource="http://purl.org/dc/dcmitype/StillImage" />
        <dc:title></dc:title>
      </cc:Work>
    </rdf:RDF>
  </metadata>
  <sodipodi:namedview
     pagecolor="#ffffff"
     bordercolor="#666666"
     borderopacity="1"
     objecttolerance="10"
     gridtolerance="10"
     guidetolerance="10"
     inkscape:pageopacity="0"
     inkscape:pageshadow="2"
     inkscape:window-width="2560"
     inkscape:window-height="1377"
     id="namedview999"
     showgrid="false"
     fit-margin-top="0"
     fit-margin-left="0"
     fit-margin-right="0"
     fit-margin-bottom="0"
     inkscape:zoom="1.4314234"
     inkscape:cx="639.97"
     inkscape:cy="67.590004"
     inkscape:window-x="1912"
     inkscape:window-y="-8"
     inkscape:window-maximized="1"
     inkscape:current-layer="svg997" />
  <defs
     id="defs911">
    <style
       id="style909">
      .cls-1 {
        fill: #000;
      }

      .cls-1, .cls-2 {
        stroke-width: 0px;
      }

      .cls-3 {
        display: none;
      }

      .cls-2 {
        fill: #f39837;
      }
    </style>
  </defs>
  <g
     id="Ebene_2"
     data-name="Ebene 2"
     class="cls-3"
     style="display:none"
     transform="translate(-81.34,-106.12)">
    <rect
       class="cls-2"
       x="551.39001"
       y="108.45"
       width="81.339996"
       height="108.45"
       id="rect913"
       style="fill:#f39837;stroke-width:0px" />
    <rect
       class="cls-2"
       y="0"
       width="81.339996"
       height="108.45"
       id="rect915"
       x="0"
       style="fill:#f39837;stroke-width:0px" />
    <rect
       class="cls-2"
       x="1361.28"
       y="0"
       width="81.339996"
       height="108.45"
       id="rect917"
       style="fill:#f39837;stroke-width:0px" />
    <rect
       class="cls-2"
       y="216.91"
       width="81.339996"
       height="108.45"
       id="rect919"
       x="0"
       style="fill:#f39837;stroke-width:0px" />
    <rect
       class="cls-2"
       x="1361.28"
       y="216.91"
       width="81.339996"
       height="108.45"
       id="rect921"
       style="fill:#f39837;stroke-width:0px" />
    <rect
       class="cls-2"
       x="284.82999"
       y="108.45"
       width="81.339996"
       height="108.45"
       id="rect923"
       style="fill:#f39837;stroke-width:0px" />
  </g>
  <g
     id="Ebene_1"
     data-name="Ebene 1"
     transform="translate(-81.34,-106.12)">
    <g
       id="g934">
      <path
         class="cls-1"
         d="m 81.34,108.45 h 48.65 c 25.25,0 42.76,12.24 42.76,37.96 0,25.72 -17.51,37.96 -42.76,37.96 H 105.2 v 32.54 H 81.34 Z m 23.86,19.36 V 165 h 21.69 c 13.32,0 21.54,-4.8 21.54,-18.59 0,-13.79 -8.21,-18.59 -21.54,-18.59 H 105.2 Z"
         id="path926"
         inkscape:connector-curvature="0"
         style="fill:#000000;stroke-width:0px" />
      <path
         class="cls-1"
         d="m 207.76,151.83 h 52.99 v -43.38 h 23.86 v 108.46 h -23.86 v -44.93 h -52.99 v 44.93 H 183.9 V 108.45 h 23.86 z"
         id="path928"
         inkscape:connector-curvature="0"
         style="fill:#000000;stroke-width:0px" />
      <path
         class="cls-1"
         d="m 441.71,108.45 v 19.37 h -34.86 v 89.09 h -23.86 v -89.09 h -34.71 v -19.37 z"
         id="path930"
         inkscape:connector-curvature="0"
         style="fill:#000000;stroke-width:0px" />
      <path
         class="cls-1"
         d="m 499.96,126.26 c -20.45,0 -33.78,12.86 -33.78,36.41 0,23.55 12.7,35.64 32.38,35.64 16.11,0 28.82,-8.68 29.59,-26.34 h -43.07 v -20.14 h 66.16 v 65.07 h -19.06 l -1.86,-22.78 c -6.04,16.42 -20.76,24.33 -38.27,24.33 -27.27,0 -50.04,-18.9 -50.04,-55.78 0,-36.88 26.03,-56.55 57.95,-56.55 29.75,0 46.17,13.63 50.2,33.31 h -24.79 c -2.79,-7.75 -11.16,-13.17 -25.41,-13.17 z"
         id="path932"
         inkscape:connector-curvature="0"
         style="fill:#000000;stroke-width:0px" />
    </g>
    <g
       id="g994">
      <path
         class="cls-1"
         d="m 632.79,108.45 h 19.53 c 10.14,0 17.17,4.91 17.17,15.24 0,10.33 -7.03,15.24 -17.17,15.24 h -9.95 v 13.06 h -9.58 v -43.55 z m 9.58,7.78 v 14.93 h 8.71 c 5.35,0 8.65,-1.93 8.65,-7.47 0,-5.54 -3.3,-7.46 -8.65,-7.46 z"
         id="path936"
         inkscape:connector-curvature="0"
         style="fill:#000000;stroke-width:0px" />
      <path
         class="cls-1"
         d="m 693.07,152 -1.8,-5.1 c -1.87,3.67 -5.54,5.72 -10.14,5.72 -6.03,0 -10.08,-3.23 -10.08,-9.08 0,-7.09 5.6,-8.71 10.82,-9.52 4.67,-0.81 9.08,-1 9.08,-3.98 0,-2.3 -1.74,-3.3 -4.85,-3.3 -3.11,0 -4.73,1.12 -4.85,3.48 h -9.33 c 0,-6.84 5.35,-10.26 14.18,-10.26 8.83,0 14.18,3.48 14.18,10.39 v 12.94 c 0,3.98 0,4.54 1.87,8.71 z m -8.77,-36.09 h -7.78 v -7.47 h 7.78 z m 0.43,29.99 c 3.17,0 6.22,-2.36 6.22,-6.84 v -3.48 c -1.37,0.81 -2.92,1.37 -4.48,1.87 -3.11,1.06 -5.97,2.05 -5.97,4.85 0,2.55 1.56,3.61 4.23,3.61 z m 12.32,-29.99 h -7.78 v -7.47 h 7.78 z"
         id="path938"
         inkscape:connector-curvature="0"
         style="fill:#000000;stroke-width:0px" />
      <path
         class="cls-1"
         d="m 727.28,146.09 c -2.12,4.6 -5.91,6.84 -10.64,6.84 -7.22,0 -12.38,-5.23 -12.38,-16.49 0,-11.26 5.16,-16.49 12.38,-16.49 4.35,0 7.96,1.87 10.14,5.85 v -17.36 h 9.33 v 43.55 h -8.83 v -5.91 z m -13.56,-9.65 c 0,5.97 2.43,9.02 6.53,9.02 4.1,0 6.53,-2.99 6.53,-9.02 0,-6.03 -2.36,-9.02 -6.53,-9.02 -4.17,0 -6.53,3.05 -6.53,9.02 z"
         id="path940"
         inkscape:connector-curvature="0"
         style="fill:#000000;stroke-width:0px" />
      <path
         class="cls-1"
         d="m 761.87,152 -1.8,-5.1 c -1.87,3.67 -5.54,5.72 -10.14,5.72 -6.03,0 -10.08,-3.23 -10.08,-9.08 0,-7.09 5.6,-8.71 10.82,-9.52 4.67,-0.81 9.08,-1 9.08,-3.98 0,-2.3 -1.74,-3.3 -4.85,-3.3 -3.11,0 -4.73,1.12 -4.85,3.48 h -9.33 c 0,-6.84 5.35,-10.26 14.18,-10.26 8.83,0 14.18,3.48 14.18,10.39 v 12.94 c 0,3.98 0,4.54 1.87,8.71 z m -8.34,-6.1 c 3.17,0 6.22,-2.36 6.22,-6.84 v -3.48 c -1.37,0.81 -2.92,1.37 -4.48,1.87 -3.11,1.06 -5.97,2.05 -5.97,4.85 0,2.55 1.56,3.61 4.23,3.61 z"
         id="path942"
         inkscape:connector-curvature="0"
         style="fill:#000000;stroke-width:0px" />
      <path
         class="cls-1"
         d="m 773.06,134.89 c 0,-9.64 5.16,-14.93 12.38,-14.93 4.73,0 8.52,2.24 10.64,6.47 v -5.54 h 8.83 v 30.61 c 0,9.08 -6.1,13.87 -15.93,13.87 -9.83,0 -15.8,-4.85 -15.8,-13.38 h 9.33 c 0,3.61 1.93,6.22 6.47,6.22 4.54,0 6.59,-2.49 6.59,-6.72 v -7.28 c -2.18,3.67 -5.79,5.6 -10.14,5.6 -7.22,0 -12.38,-5.29 -12.38,-14.93 z m 22.52,0 c 0,-5.41 -2.36,-8.09 -6.53,-8.09 -4.17,0 -6.53,2.67 -6.53,8.09 0,5.42 2.43,8.09 6.53,8.09 4.1,0 6.53,-2.67 6.53,-8.09 z"
         id="path944"
         inkscape:connector-curvature="0"
         style="fill:#000000;stroke-width:0px" />
      <path
         class="cls-1"
         d="m 808.58,136.44 c 0,-10.95 6.59,-16.49 15.93,-16.49 9.34,0 15.8,5.54 15.8,16.49 0,10.95 -6.59,16.49 -15.8,16.49 -9.21,0 -15.93,-5.54 -15.93,-16.49 z m 22.27,0 c 0,-5.97 -2.36,-9.02 -6.35,-9.02 -3.99,0 -6.41,2.99 -6.41,9.02 0,6.03 2.36,9.02 6.41,9.02 4.05,0 6.35,-3.05 6.35,-9.02 z"
         id="path946"
         inkscape:connector-curvature="0"
         style="fill:#000000;stroke-width:0px" />
      <path
         class="cls-1"
         d="m 843.35,134.89 c 0,-9.64 5.16,-14.93 12.38,-14.93 4.73,0 8.52,2.24 10.64,6.47 v -5.54 h 8.83 v 30.61 c 0,9.08 -6.1,13.87 -15.93,13.87 -9.83,0 -15.8,-4.85 -15.8,-13.38 h 9.33 c 0,3.61 1.93,6.22 6.47,6.22 4.54,0 6.59,-2.49 6.59,-6.72 v -7.28 c -2.18,3.67 -5.79,5.6 -10.14,5.6 -7.22,0 -12.38,-5.29 -12.38,-14.93 z m 22.52,0 c 0,-5.41 -2.36,-8.09 -6.53,-8.09 -4.17,0 -6.53,2.67 -6.53,8.09 0,5.42 2.43,8.09 6.53,8.09 4.1,0 6.53,-2.67 6.53,-8.09 z"
         id="path948"
         inkscape:connector-curvature="0"
         style="fill:#000000;stroke-width:0px" />
      <path
         class="cls-1"
         d="m 889.76,116.54 h -9.33 v -8.09 h 9.33 z m 0,35.46 h -9.33 v -31.1 h 9.33 z"
         id="path950"
         inkscape:connector-curvature="0"
         style="fill:#000000;stroke-width:0px" />
      <path
         class="cls-1"
         d="m 904.5,139.43 c -4.91,-0.93 -10.2,-2.61 -10.2,-9.64 0,-6.22 4.85,-9.83 12.69,-9.83 9.02,0 13.44,4.17 13.56,10.26 h -8.65 c -0.12,-2.24 -1.93,-3.61 -4.91,-3.61 -2.49,0 -4.17,1.12 -4.17,2.8 0,2.55 3.86,2.86 8.03,3.67 4.91,1 10.2,2.61 10.2,9.7 0,6.59 -5.1,10.14 -13.31,10.14 -8.83,0 -14.18,-4.11 -14.18,-10.58 h 8.58 c 0.12,2.43 2.24,3.92 5.6,3.92 2.86,0 4.79,-1.12 4.79,-3.11 0,-2.61 -3.86,-2.86 -8.03,-3.73 z"
         id="path952"
         inkscape:connector-curvature="0"
         style="fill:#000000;stroke-width:0px" />
      <path
         class="cls-1"
         d="m 939.4,145.46 c 3.42,0 5.35,-2.36 5.6,-6.22 h 9.46 c -0.31,8.65 -5.91,13.69 -15.05,13.69 -9.14,0 -15.93,-5.54 -15.93,-16.49 0,-10.95 6.66,-16.49 15.93,-16.49 9.27,0 14.74,5.04 15.05,13.69 H 945 c -0.25,-3.86 -2.18,-6.22 -5.6,-6.22 -3.86,0 -6.47,3.05 -6.47,9.02 0,5.97 2.61,9.02 6.47,9.02 z"
         id="path954"
         inkscape:connector-curvature="0"
         style="fill:#000000;stroke-width:0px" />
      <path
         class="cls-1"
         d="m 987.55,152 h -9.33 v -18.54 c 0,-3.86 -1.87,-5.66 -4.98,-5.66 -3.36,0 -5.6,2.24 -5.6,6.59 V 152 h -9.33 v -43.55 h 9.33 v 17.73 c 1.8,-4.04 5.41,-6.22 9.89,-6.22 5.97,0 10.02,3.67 10.02,11.63 v 20.4 z"
         id="path956"
         inkscape:connector-curvature="0"
         style="fill:#000000;stroke-width:0px" />
      <path
         class="cls-1"
         d="m 1006.89,152.93 c -9.21,0 -15.93,-5.41 -15.93,-16.49 0,-11.08 6.72,-16.49 15.93,-16.49 9.21,0 15.37,5.54 15.37,16.49 0,0.87 -0.06,1.62 -0.06,2.36 h -22.27 c 0.31,4.79 3.11,7.09 6.97,7.09 3.17,0 4.85,-1.37 5.47,-3.55 h 9.33 c -0.93,6.41 -6.78,10.58 -14.81,10.58 z m -6.84,-19.72 h 13.25 c -0.5,-4.23 -2.99,-6.22 -6.41,-6.22 -3.67,0 -6.35,1.99 -6.84,6.22 z"
         id="path958"
         inkscape:connector-curvature="0"
         style="fill:#000000;stroke-width:0px" />
      <path
         class="cls-1"
         d="m 1047.89,125.87 h 21.28 v -17.42 h 9.58 V 152 h -9.58 v -18.04 h -21.28 V 152 h -9.58 v -43.55 h 9.58 z"
         id="path960"
         inkscape:connector-curvature="0"
         style="fill:#000000;stroke-width:0px" />
      <path
         class="cls-1"
         d="m 1082.28,136.44 c 0,-10.95 6.59,-16.49 15.93,-16.49 9.34,0 15.8,5.54 15.8,16.49 0,10.95 -6.59,16.49 -15.8,16.49 -9.21,0 -15.93,-5.54 -15.93,-16.49 z m 22.28,0 c 0,-5.97 -2.36,-9.02 -6.35,-9.02 -3.99,0 -6.41,2.99 -6.41,9.02 0,6.03 2.36,9.02 6.41,9.02 4.05,0 6.35,-3.05 6.35,-9.02 z"
         id="path962"
         inkscape:connector-curvature="0"
         style="fill:#000000;stroke-width:0px" />
      <path
         class="cls-1"
         d="m 1132.73,145.46 c 3.42,0 5.35,-2.36 5.6,-6.22 h 9.46 c -0.31,8.65 -5.91,13.69 -15.05,13.69 -9.14,0 -15.93,-5.54 -15.93,-16.49 0,-10.95 6.66,-16.49 15.93,-16.49 9.27,0 14.74,5.04 15.05,13.69 h -9.46 c -0.25,-3.86 -2.18,-6.22 -5.6,-6.22 -3.86,0 -6.47,3.05 -6.47,9.02 0,5.97 2.61,9.02 6.47,9.02 z"
         id="path964"
         inkscape:connector-curvature="0"
         style="fill:#000000;stroke-width:0px" />
      <path
         class="cls-1"
         d="m 1180.88,152 h -9.33 v -18.54 c 0,-3.86 -1.87,-5.66 -4.98,-5.66 -3.36,0 -5.6,2.24 -5.6,6.59 V 152 h -9.33 v -43.55 h 9.33 v 17.73 c 1.8,-4.04 5.41,-6.22 9.89,-6.22 5.97,0 10.02,3.67 10.02,11.63 v 20.4 z"
         id="path966"
         inkscape:connector-curvature="0"
         style="fill:#000000;stroke-width:0px" />
      <path
         class="cls-1"
         d="m 1195.31,139.43 c -4.91,-0.93 -10.2,-2.61 -10.2,-9.64 0,-6.22 4.85,-9.83 12.69,-9.83 9.02,0 13.44,4.17 13.56,10.26 h -8.65 c -0.12,-2.24 -1.93,-3.61 -4.91,-3.61 -2.49,0 -4.17,1.12 -4.17,2.8 0,2.55 3.86,2.86 8.03,3.67 4.91,1 10.2,2.61 10.2,9.7 0,6.59 -5.1,10.14 -13.31,10.14 -8.83,0 -14.18,-4.11 -14.18,-10.58 h 8.58 c 0.12,2.43 2.24,3.92 5.6,3.92 2.86,0 4.79,-1.12 4.79,-3.11 0,-2.61 -3.86,-2.86 -8.03,-3.73 z"
         id="path968"
         inkscape:connector-curvature="0"
         style="fill:#000000;stroke-width:0px" />
      <path
         class="cls-1"
         d="m 1230.21,145.46 c 3.42,0 5.35,-2.36 5.6,-6.22 h 9.46 c -0.31,8.65 -5.91,13.69 -15.05,13.69 -9.14,0 -15.93,-5.54 -15.93,-16.49 0,-10.95 6.66,-16.49 15.93,-16.49 9.27,0 14.74,5.04 15.05,13.69 h -9.46 c -0.25,-3.86 -2.18,-6.22 -5.6,-6.22 -3.86,0 -6.47,3.05 -6.47,9.02 0,5.97 2.61,9.02 6.47,9.02 z"
         id="path970"
         inkscape:connector-curvature="0"
         style="fill:#000000;stroke-width:0px" />
      <path
         class="cls-1"
         d="m 1278.36,152 h -9.33 v -18.54 c 0,-3.86 -1.87,-5.66 -4.98,-5.66 -3.36,0 -5.6,2.24 -5.6,6.59 V 152 h -9.33 v -43.55 h 9.33 v 17.73 c 1.8,-4.04 5.41,-6.22 9.89,-6.22 5.97,0 10.02,3.67 10.02,11.63 v 20.4 z"
         id="path972"
         inkscape:connector-curvature="0"
         style="fill:#000000;stroke-width:0px" />
      <path
         class="cls-1"
         d="m 1283.09,120.89 h 9.33 v 18.85 c 0,3.79 1.74,5.54 4.73,5.54 3.23,0 5.35,-2.24 5.35,-6.47 v -17.92 h 9.33 v 31.1 H 1303 v -5.47 c -1.74,4.23 -5.41,6.41 -9.95,6.41 -5.91,0 -9.95,-3.67 -9.95,-11.51 v -20.53 z"
         id="path974"
         inkscape:connector-curvature="0"
         style="fill:#000000;stroke-width:0px" />
      <path
         class="cls-1"
         d="m 1326.26,152 h -9.33 v -43.55 h 9.33 z"
         id="path976"
         inkscape:connector-curvature="0"
         style="fill:#000000;stroke-width:0px" />
      <path
         class="cls-1"
         d="m 1345.91,152.93 c -9.21,0 -15.93,-5.41 -15.93,-16.49 0,-11.08 6.72,-16.49 15.93,-16.49 9.21,0 15.37,5.54 15.37,16.49 0,0.87 -0.06,1.62 -0.06,2.36 h -22.27 c 0.31,4.79 3.11,7.09 6.97,7.09 3.17,0 4.85,-1.37 5.47,-3.55 h 9.33 c -0.93,6.41 -6.78,10.58 -14.81,10.58 z m -6.84,-19.72 h 13.25 c -0.5,-4.23 -2.99,-6.22 -6.41,-6.22 -3.67,0 -6.35,1.99 -6.84,6.22 z"
         id="path978"
         inkscape:connector-curvature="0"
         style="fill:#000000;stroke-width:0px" />
      <path
         class="cls-1"
         d="m 667.69,173.35 v 7.78 h -14 v 35.77 h -9.58 v -35.77 h -13.94 v -7.78 h 37.51 z"
         id="path980"
         inkscape:connector-curvature="0"
         style="fill:#000000;stroke-width:0px" />
      <path
         class="cls-1"
         d="m 699.97,216.9 h -9.33 v -18.54 c 0,-3.86 -1.87,-5.66 -4.98,-5.66 -3.36,0 -5.6,2.24 -5.6,6.59 v 17.61 h -9.33 v -43.55 h 9.33 v 17.73 c 1.8,-4.04 5.41,-6.22 9.89,-6.22 5.97,0 10.02,3.67 10.02,11.63 z"
         id="path982"
         inkscape:connector-curvature="0"
         style="fill:#000000;stroke-width:0px" />
      <path
         class="cls-1"
         d="m 704.08,185.79 h 9.33 v 18.85 c 0,3.79 1.74,5.54 4.73,5.54 3.23,0 5.35,-2.24 5.35,-6.47 v -17.92 h 9.33 v 31.1 h -8.83 v -5.47 c -1.74,4.23 -5.41,6.41 -9.95,6.41 -5.91,0 -9.95,-3.67 -9.95,-11.51 v -20.53 z"
         id="path984"
         inkscape:connector-curvature="0"
         style="fill:#000000;stroke-width:0px" />
      <path
         class="cls-1"
         d="m 747.25,202.21 v 14.68 h -9.33 v -31.1 h 8.52 v 7.22 c 1.56,-5.1 4.85,-7.53 9.21,-7.53 1,0 1.74,0.12 2.43,0.31 v 8.46 c -0.81,-0.19 -1.74,-0.31 -2.92,-0.31 -4.91,0 -7.9,2.55 -7.9,8.27 z"
         id="path986"
         inkscape:connector-curvature="0"
         style="fill:#000000;stroke-width:0px" />
      <path
         class="cls-1"
         d="m 760,199.79 c 0,-9.64 5.16,-14.93 12.38,-14.93 4.73,0 8.52,2.24 10.64,6.47 v -5.54 h 8.83 v 30.61 c 0,9.08 -6.1,13.87 -15.93,13.87 -9.83,0 -15.8,-4.85 -15.8,-13.38 h 9.33 c 0,3.61 1.93,6.22 6.47,6.22 4.54,0 6.59,-2.49 6.59,-6.72 v -7.28 c -2.18,3.67 -5.79,5.6 -10.14,5.6 -7.22,0 -12.38,-5.29 -12.38,-14.93 z m 22.52,0 c 0,-5.41 -2.36,-8.09 -6.53,-8.09 -4.17,0 -6.53,2.68 -6.53,8.09 0,5.41 2.43,8.09 6.53,8.09 4.1,0 6.53,-2.68 6.53,-8.09 z"
         id="path988"
         inkscape:connector-curvature="0"
         style="fill:#000000;stroke-width:0px" />
      <path
         class="cls-1"
         d="m 817.29,216.9 -1.8,-5.1 c -1.87,3.67 -5.54,5.72 -10.14,5.72 -6.03,0 -10.08,-3.23 -10.08,-9.08 0,-7.09 5.6,-8.71 10.82,-9.52 4.67,-0.81 9.08,-1 9.08,-3.98 0,-2.3 -1.74,-3.3 -4.85,-3.3 -3.11,0 -4.73,1.12 -4.85,3.48 h -9.33 c 0,-6.84 5.35,-10.26 14.18,-10.26 8.83,0 14.18,3.48 14.18,10.39 v 12.94 c 0,3.98 0,4.54 1.87,8.71 z m -8.33,-6.1 c 3.17,0 6.22,-2.36 6.22,-6.84 v -3.48 c -1.37,0.81 -2.92,1.37 -4.48,1.87 -3.11,1.06 -5.97,2.05 -5.97,4.85 0,2.55 1.56,3.61 4.23,3.61 z"
         id="path990"
         inkscape:connector-curvature="0"
         style="fill:#000000;stroke-width:0px" />
      <path
         class="cls-1"
         d="m 829.23,185.79 h 9.33 v 18.85 c 0,3.79 1.74,5.54 4.73,5.54 3.23,0 5.35,-2.24 5.35,-6.47 v -17.92 h 9.33 v 31.1 h -8.83 v -5.47 c -1.74,4.23 -5.41,6.41 -9.95,6.41 -5.91,0 -9.95,-3.67 -9.95,-11.51 v -20.53 z"
         id="path992"
         inkscape:connector-curvature="0"
         style="fill:#000000;stroke-width:0px" />
    </g>
  </g>
</svg>
