<?xml version="1.0" encoding="UTF-8"?>
<!-- Generator: Adobe Illustrator 18.1.1, SVG Export Plug-In . SVG Version: 6.00 Build 0)  -->
<svg version="1.1" id="Ebene_1" xmlns="http://www.w3.org/2000/svg" xmlns:xlink="http://www.w3.org/1999/xlink" x="0px" y="0px" viewBox="0 0 465 60" enable-background="new 0 0 465 60" xml:space="preserve">
<g>
	<path fill="#1D1D1B" d="M433.8,21.2h-4.3c-2.4,0-4.3,1.9-4.3,4.3v8.7c0,2.4,1.9,4.3,4.3,4.3h8.7c2.4,0,4.3-1.9,4.3-4.3v-8.7   c0-2.4-1.9-4.3-4.3-4.3H433.8 M428.7,34.2v-8.7c0-0.4,0.3-0.7,0.7-0.7h8.7c0.4,0,0.7,0.3,0.7,0.7v8.7c0,0.4-0.3,0.7-0.7,0.7h-8.7   C429.1,35,428.7,34.6,428.7,34.2z"/>
	<path fill="#1D1D1B" d="M433.8,0.4c-5.5,0-11,1.6-15.7,4.5c-3.8,2.4-6.9,5.5-9.3,9.3c-2.9,4.7-4.5,10.1-4.5,15.6   c0,5.6,1.6,11,4.5,15.7c2.4,3.8,5.5,6.9,9.3,9.3c4.7,2.9,10.1,4.5,15.7,4.5c5.5,0,11-1.6,15.7-4.5c3.8-2.4,6.9-5.5,9.3-9.3   c2.9-4.7,4.5-10.1,4.5-15.7c0-5.5-1.6-11-4.5-15.7c-2.4-3.8-5.5-6.9-9.3-9.3C444.8,2,439.3,0.4,433.8,0.4 M420,51.8   c-3.3-2.1-6-4.8-8.1-8.1c-2.6-4.2-4-8.9-4-13.8c0-4.9,1.4-9.6,4-13.8c2.1-3.3,4.8-6,8.1-8.1c4.1-2.6,8.9-4,13.8-4   c4.9,0,9.7,1.4,13.8,4c3.3,2.1,6,4.8,8.1,8.1c2.6,4.1,4,8.9,4,13.8c0,4.9-1.4,9.7-4,13.8c-2.1,3.3-4.8,6-8.1,8.1   c-4.1,2.6-8.9,4-13.8,4C428.9,55.8,424.2,54.4,420,51.8z"/>
</g>
<path fill="#1D1D1B" d="M433.8,7.4c-3.9,0-8.3,0.3-12.3,2.8c-3,1.9-5.4,4.3-7.3,7.3c-2.5,4-2.8,8.7-2.8,12.3c0,3.9,0.3,8.4,2.8,12.4  c1.9,3,4.3,5.4,7.3,7.3c4,2.5,8.7,2.8,12.3,2.8c3.9,0,8.3-0.3,12.3-2.8c3-1.9,5.4-4.3,7.3-7.3c2.5-4,2.8-8.7,2.8-12.3  c0-3.9-0.3-8.3-2.8-12.3c-1.9-3-4.3-5.4-7.3-7.3C442.1,7.8,437.4,7.4,433.8,7.4 M444.2,13.3c2.5,1.6,4.6,3.6,6.2,6.2  c2,3.2,2.3,7.1,2.3,10.4c0,3.2-0.3,7.2-2.3,10.4c-1.6,2.5-3.6,4.6-6.2,6.2c-3.2,2-7.1,2.3-10.4,2.3c-3.2,0-7.2-0.3-10.4-2.3  c-2.5-1.6-4.6-3.6-6.2-6.2c-2-3.2-2.3-7.1-2.3-10.5c0-3.2,0.3-7.2,2.3-10.4c1.6-2.5,3.6-4.6,6.2-6.2c3.2-2,7.1-2.3,10.4-2.3  C437,11,441,11.3,444.2,13.3z"/>
<path fill="#1D1D1B" d="M424.9,15.8c-2.1,1.3-3.9,3.1-5.2,5.2c-1.6,2.5-1.5,5.3-1.5,7.8l0,1l0,1.1c0,2.3-0.1,5.3,1.5,7.8  c1.3,2.1,3.1,3.9,5.2,5.2c2.5,1.6,5.3,1.5,7.8,1.5l1,0l1.1,0c2.3,0,5.2,0.1,7.8-1.5c2.1-1.3,3.9-3.1,5.2-5.2  c1.6-2.5,1.5-5.3,1.5-7.8l0-1l0-1.1c0-2.3,0.1-5.2-1.5-7.8c-1.3-2.1-3.1-3.9-5.2-5.2c-2.5-1.6-5.3-1.5-7.8-1.5l-1,0l-1.1,0  C430.4,14.2,427.5,14.2,424.9,15.8 M426.8,41c-1.7-1-3.1-2.4-4.1-4.1c-1.1-1.7-1-3.8-1-5.9l0-1.1l0-1.1c0-2.1-0.1-4.3,1-5.9  c1-1.7,2.4-3.1,4.1-4.1c1.7-1,3.8-1,5.8-1l1.2,0h0l1.1,0c2.1,0,4.3-0.1,5.9,1c1.7,1,3.1,2.4,4.1,4.1c1,1.7,1,3.8,1,5.8l0,1.1l0,1.1  c0,2.1,0.1,4.3-1,5.9c-1,1.7-2.4,3.1-4.1,4.1c-1.7,1-3.8,1-5.8,1l-1.1,0l-1.1,0C430.6,41.9,428.5,42,426.8,41z"/>
<g>
	<path fill="#1D1D1B" d="M5.2,36.3h1.5L4.6,47.1h4.9l-0.3,1.3H2.9L5.2,36.3z"/>
	<path fill="#1D1D1B" d="M16.6,47.9c-0.6,0.4-1.7,0.7-2.9,0.7c-2.3,0-3.3-1.6-3.3-3.5c0-2.6,1.9-5.6,4.7-5.6c1.7,0,2.6,1,2.6,2.2   c0,2.3-2.6,2.9-5.8,2.8c-0.1,0.4,0,1.2,0.2,1.7c0.3,0.8,1,1.2,1.9,1.2c1,0,1.8-0.3,2.3-0.6L16.6,47.9z M15,40.7   c-1.4,0-2.5,1.4-2.9,2.8c2.4,0,4.2-0.3,4.2-1.7C16.3,41.1,15.8,40.7,15,40.7z"/>
	<path fill="#1D1D1B" d="M18.5,48.4l2.4-12.8h1.5l-1.1,5.6h0c0.7-1.1,1.8-1.7,3.1-1.7c1,0,2.2,0.6,2.2,2.3c0,0.4-0.1,1-0.1,1.5   l-1,5.1H24l1-5c0.1-0.3,0.1-0.7,0.1-1.2c0-0.8-0.4-1.4-1.3-1.4c-1.2,0-2.6,1.3-3,3.3L20,48.4H18.5z"/>
	<path fill="#1D1D1B" d="M28.1,48.4l1.1-5.6c0.2-1.1,0.3-2.3,0.4-3.1h1.3c-0.1,0.6-0.1,1.2-0.2,1.9h0.1c0.6-1.2,1.5-2.1,2.7-2.1   c0.1,0,0.3,0,0.4,0L33.6,41c-0.1,0-0.3,0-0.4,0c-1.3,0-2.4,1.6-2.8,3.6l-0.7,3.8H28.1z"/>
	<path fill="#1D1D1B" d="M40,47.9c-0.6,0.4-1.7,0.7-2.9,0.7c-2.3,0-3.3-1.6-3.3-3.5c0-2.6,1.9-5.6,4.7-5.6c1.7,0,2.6,1,2.6,2.2   c0,2.3-2.6,2.9-5.8,2.8c-0.1,0.4,0,1.2,0.2,1.7c0.3,0.8,1,1.2,1.9,1.2c1,0,1.8-0.3,2.3-0.6L40,47.9z M38.4,40.7   c-1.4,0-2.5,1.4-2.9,2.8c2.4,0,4.2-0.3,4.2-1.7C39.7,41.1,39.2,40.7,38.4,40.7z"/>
	<path fill="#1D1D1B" d="M50.3,48.4l-0.6-12.1h1.5l0.3,7.3c0.1,1.6,0,2.4,0,3.2h0c0.3-0.8,0.6-1.6,1.3-3.1l3.4-7.4h1.6l0.3,7   c0.1,1.6,0.1,2.6,0,3.4h0c0.4-1,0.7-2,1.2-3.1l3.3-7.3H64l-5.6,12.1h-1.6l-0.3-6.9c-0.1-1.4-0.1-2.1,0-3.5h-0.1   c-0.4,1.2-0.7,2.1-1.2,3.2l-3.4,7.2H50.3z"/>
	<path fill="#1D1D1B" d="M69.1,47.9c-0.6,0.4-1.7,0.7-2.9,0.7c-2.3,0-3.3-1.6-3.3-3.5c0-2.6,1.9-5.6,4.7-5.6c1.7,0,2.6,1,2.6,2.2   c0,2.3-2.6,2.9-5.8,2.8c-0.1,0.4,0,1.2,0.2,1.7c0.3,0.8,1,1.2,1.9,1.2c1,0,1.8-0.3,2.3-0.6L69.1,47.9z M67.4,40.7   c-1.4,0-2.5,1.4-2.9,2.8c2.4,0,4.2-0.3,4.2-1.7C68.8,41.1,68.2,40.7,67.4,40.7z"/>
	<path fill="#1D1D1B" d="M71,48.4l1.7-8.7h1.5l-1.7,8.7H71z M72.9,37.3c0-0.6,0.4-1,1-1c0.5,0,0.9,0.4,0.9,0.9c0,0.6-0.4,1-1,1   C73.2,38.2,72.9,37.9,72.9,37.3z"/>
	<path fill="#1D1D1B" d="M78.9,37.6l-0.4,2.1h2.1l-0.2,1.2h-2.1l-0.8,4.2c-0.1,0.5-0.2,0.9-0.2,1.4c0,0.5,0.3,0.8,0.8,0.8   c0.3,0,0.5,0,0.7-0.1l-0.1,1.2c-0.3,0.1-0.7,0.2-1.2,0.2c-1.3,0-1.8-0.8-1.8-1.7c0-0.5,0.1-1,0.2-1.6l0.8-4.4h-1.2l0.2-1.2h1.2   l0.3-1.6L78.9,37.6z"/>
	<path fill="#1D1D1B" d="M87,47.9c-0.6,0.4-1.7,0.7-2.9,0.7c-2.3,0-3.3-1.6-3.3-3.5c0-2.6,1.9-5.6,4.7-5.6c1.7,0,2.6,1,2.6,2.2   c0,2.3-2.6,2.9-5.8,2.8c-0.1,0.4,0,1.2,0.2,1.7c0.3,0.8,1,1.2,1.9,1.2c1,0,1.8-0.3,2.3-0.6L87,47.9z M85.3,40.7   c-1.4,0-2.5,1.4-2.9,2.8c2.4,0,4.2-0.3,4.2-1.7C86.7,41.1,86.1,40.7,85.3,40.7z"/>
	<path fill="#1D1D1B" d="M88.9,48.4l1.1-5.6c0.2-1.1,0.3-2.3,0.4-3.1h1.3c-0.1,0.6-0.1,1.2-0.2,1.9h0.1c0.6-1.2,1.5-2.1,2.7-2.1   c0.1,0,0.3,0,0.4,0L94.3,41c-0.1,0-0.3,0-0.4,0c-1.3,0-2.4,1.6-2.8,3.6l-0.7,3.8H88.9z"/>
	<path fill="#1D1D1B" d="M98.4,35.7l-1.2,5.6h0c0.8-1.2,1.9-1.8,3.1-1.8c1.9,0,2.6,1.6,2.6,3.1c0,2.7-1.9,6-5.4,6   c-1.5,0-2.7-0.6-2.7-2.2c0-0.4,0.1-1,0.2-1.4l1.9-9.4H98.4z M96.6,45.1c-0.1,0.3-0.1,0.6-0.1,1.1c0,0.8,0.5,1.3,1.4,1.3   c2.2,0,3.6-2.7,3.6-4.6c0-1.1-0.5-2.1-1.7-2.1c-1.3,0-2.6,1.3-3.1,3.4L96.6,45.1z"/>
	<path fill="#1D1D1B" d="M104,48.4l1.7-8.7h1.5l-1.7,8.7H104z M106,37.3c0-0.6,0.4-1,1-1c0.5,0,0.9,0.4,0.9,0.9c0,0.6-0.4,1-1,1   C106.3,38.2,106,37.9,106,37.3z"/>
	<path fill="#1D1D1B" d="M108.2,48.4l2.4-12.8h1.5l-2.4,12.8H108.2z"/>
	<path fill="#1D1D1B" d="M121.5,35.7l-1.9,10c-0.2,0.9-0.3,1.9-0.4,2.8h-1.4l0.2-1.7h0c-0.8,1.2-1.9,1.9-3.1,1.9   c-1.7,0-2.6-1.4-2.6-3.2c0-3.1,2.3-5.9,5.4-5.9c0.6,0,1.2,0.1,1.5,0.3l0.8-4.2H121.5z M119,41.1c-0.3-0.2-0.8-0.4-1.4-0.4   c-2.1,0-3.7,2.2-3.7,4.6c0,1,0.4,2.1,1.6,2.1c1.2,0,2.5-1.3,2.9-3.3L119,41.1z"/>
	<path fill="#1D1D1B" d="M130.2,39.7l-1.2,6.2c-0.2,1-0.3,1.8-0.4,2.5h-1.3l0.2-1.6h0c-0.8,1.1-1.9,1.8-3.1,1.8   c-1.1,0-2.3-0.5-2.3-2.5c0-0.4,0.1-0.9,0.2-1.5l1-4.9h1.5l-0.9,4.9c-0.1,0.5-0.1,0.9-0.1,1.3c0,0.9,0.4,1.5,1.4,1.5   c1.1,0,2.5-1.3,2.8-3.2l0.8-4.5H130.2z"/>
	<path fill="#1D1D1B" d="M131.2,48.4l1.2-6.2c0.2-1,0.3-1.8,0.4-2.5h1.3l-0.2,1.7h0c0.8-1.2,2-1.9,3.2-1.9c1,0,2.2,0.6,2.2,2.4   c0,0.4-0.1,0.9-0.2,1.4l-1,5.1h-1.5l1-5c0.1-0.3,0.1-0.7,0.1-1.1c0-0.9-0.3-1.5-1.4-1.5c-1.1,0-2.6,1.3-3,3.4l-0.8,4.2H131.2z"/>
	<path fill="#1D1D1B" d="M140.9,50.4c0.5,0.3,1.4,0.6,2.3,0.6c1.5,0,2.6-0.7,3.1-3.1l0.3-1.3h0c-0.8,1.2-1.8,1.9-3,1.9   c-1.8,0-2.7-1.5-2.7-3c0-2.9,2.2-5.9,5.5-5.9c1,0,2.1,0.3,2.8,0.6l-1.3,7.2c-0.3,1.9-0.8,3.1-1.7,3.9c-0.9,0.7-2.1,1-3,1   c-1.1,0-2.1-0.3-2.6-0.6L140.9,50.4z M147.6,41c-0.3-0.1-0.8-0.3-1.4-0.3c-2.2,0-3.7,2.3-3.7,4.4c0,1,0.3,2.1,1.7,2.1   c1.3,0,2.6-1.6,2.9-3.3L147.6,41z"/>
	<path fill="#1D1D1B" d="M159.1,36.3h6.2l-0.3,1.3h-4.6l-0.8,4.1h4.3l-0.3,1.3h-4.3l-1,5.5h-1.5L159.1,36.3z"/>
	<path fill="#1D1D1B" d="M173,43.1c0,2.7-1.9,5.5-4.8,5.5c-2.2,0-3.4-1.6-3.4-3.6c0-2.9,2-5.5,4.8-5.5C171.9,39.5,173,41.3,173,43.1   z M166.3,45c0,1.4,0.8,2.4,2.1,2.4c1.8,0,3.1-2.3,3.1-4.3c0-1-0.5-2.4-2-2.4C167.6,40.7,166.3,43,166.3,45z"/>
	<path fill="#1D1D1B" d="M174.1,48.4l1.1-5.6c0.2-1.1,0.3-2.3,0.4-3.1h1.3c-0.1,0.6-0.1,1.2-0.2,1.9h0.1c0.6-1.2,1.5-2.1,2.7-2.1   c0.1,0,0.3,0,0.4,0l-0.3,1.5c-0.1,0-0.3,0-0.4,0c-1.3,0-2.4,1.6-2.8,3.6l-0.7,3.8H174.1z"/>
	<path fill="#1D1D1B" d="M179.8,46.9c0.4,0.3,1.2,0.5,1.9,0.5c1,0,1.7-0.6,1.7-1.4c0-0.7-0.3-1.1-1.2-1.6c-1-0.6-1.6-1.3-1.6-2.2   c0-1.5,1.3-2.7,3.1-2.7c0.8,0,1.5,0.2,1.8,0.4l-0.4,1.1c-0.3-0.2-0.9-0.4-1.5-0.4c-0.9,0-1.5,0.6-1.5,1.3c0,0.6,0.4,1,1.2,1.5   c1,0.5,1.6,1.3,1.6,2.3c0,1.8-1.5,2.9-3.3,2.9c-0.9,0-1.8-0.3-2.2-0.6L179.8,46.9z"/>
	<path fill="#1D1D1B" d="M192.5,48.1c-0.5,0.2-1.3,0.5-2.5,0.5c-2.2,0-3.3-1.5-3.3-3.4c0-3,2.2-5.7,5.3-5.7c0.8,0,1.5,0.2,1.8,0.4   l-0.4,1.2c-0.3-0.2-0.8-0.3-1.5-0.3c-2.3,0-3.7,2.2-3.7,4.3c0,1.4,0.7,2.3,2.2,2.3c0.9,0,1.6-0.3,2-0.5L192.5,48.1z"/>
	<path fill="#1D1D1B" d="M194.1,48.4l2.4-12.8h1.5l-1.1,5.6h0c0.7-1.1,1.8-1.7,3.1-1.7c1,0,2.2,0.6,2.2,2.3c0,0.4-0.1,1-0.1,1.5   l-1,5.1h-1.5l1-5c0.1-0.3,0.1-0.7,0.1-1.2c0-0.8-0.4-1.4-1.3-1.4c-1.2,0-2.6,1.3-3,3.3l-0.8,4.4H194.1z"/>
	<path fill="#1D1D1B" d="M212.2,39.7l-1.2,6.2c-0.2,1-0.3,1.8-0.4,2.5h-1.3l0.2-1.6h0c-0.8,1.1-1.9,1.8-3.1,1.8   c-1.1,0-2.3-0.5-2.3-2.5c0-0.4,0.1-0.9,0.2-1.5l1-4.9h1.5l-0.9,4.9c-0.1,0.5-0.1,0.9-0.1,1.3c0,0.9,0.4,1.5,1.4,1.5   c1.1,0,2.5-1.3,2.8-3.2l0.8-4.5H212.2z"/>
	<path fill="#1D1D1B" d="M213.2,48.4l1.2-6.2c0.2-1,0.3-1.8,0.4-2.5h1.3l-0.2,1.7h0c0.8-1.2,2-1.9,3.2-1.9c1,0,2.2,0.6,2.2,2.4   c0,0.4-0.1,0.9-0.2,1.4l-1,5.1h-1.5l1-5c0.1-0.3,0.1-0.7,0.1-1.1c0-0.9-0.3-1.5-1.4-1.5c-1.1,0-2.6,1.3-3,3.4l-0.8,4.2H213.2z"/>
	<path fill="#1D1D1B" d="M222.9,50.4c0.5,0.3,1.4,0.6,2.3,0.6c1.5,0,2.6-0.7,3.1-3.1l0.3-1.3h0c-0.8,1.2-1.8,1.9-3,1.9   c-1.8,0-2.7-1.5-2.7-3c0-2.9,2.2-5.9,5.5-5.9c1,0,2.1,0.3,2.8,0.6l-1.3,7.2c-0.3,1.9-0.8,3.1-1.7,3.9c-0.9,0.7-2.1,1-3,1   c-1.1,0-2.1-0.3-2.6-0.6L222.9,50.4z M229.5,41c-0.3-0.1-0.8-0.3-1.4-0.3c-2.2,0-3.7,2.3-3.7,4.4c0,1,0.3,2.1,1.7,2.1   c1.3,0,2.6-1.6,2.9-3.3L229.5,41z"/>
</g>
<g>
	<path fill="#1D1D1B" d="M3.2,11.1c1.1-0.2,2.7-0.3,5-0.3c2.3,0,3.9,0.4,5,1.3c1.1,0.8,1.7,2.2,1.7,3.8s-0.5,3-1.5,3.9   c-1.3,1.2-3.1,1.7-5.3,1.7c-0.5,0-0.9,0-1.3-0.1v5.8H3.2V11.1z M6.8,18.5c0.3,0.1,0.7,0.1,1.2,0.1c2,0,3.2-1,3.2-2.6   c0-1.5-1-2.4-2.9-2.4c-0.7,0-1.2,0-1.5,0.1V18.5z"/>
	<path fill="#1D1D1B" d="M26.4,24.3c0,1.1,0,2.2,0.2,2.8h-3.3L23.1,26H23c-0.8,0.9-2,1.4-3.4,1.4c-2.4,0-3.8-1.7-3.8-3.6   c0-3.1,2.8-4.5,6.9-4.5v-0.1c0-0.7-0.3-1.5-2.1-1.5c-1.2,0-2.5,0.4-3.3,0.9l-0.7-2.4c0.8-0.5,2.4-1.1,4.6-1.1   c3.9,0,5.2,2.3,5.2,5.1V24.3z M17.3,12c0-1,0.8-1.7,1.7-1.7c0.9,0,1.6,0.7,1.6,1.7c0,0.9-0.7,1.7-1.7,1.7   C18,13.7,17.3,12.9,17.3,12z M22.9,21.6c-1.9,0-3.4,0.5-3.4,1.9c0,0.9,0.6,1.4,1.4,1.4c0.9,0,1.7-0.6,1.9-1.4   c0-0.2,0.1-0.4,0.1-0.6V21.6z M24,13.7c-0.9,0-1.7-0.8-1.7-1.7c0-1,0.7-1.7,1.7-1.7c0.9,0,1.7,0.7,1.7,1.7   C25.7,12.9,25,13.7,24,13.7L24,13.7z"/>
	<path fill="#1D1D1B" d="M40.8,10v13.6c0,1.3,0,2.7,0.1,3.5h-3.3l-0.1-1.7h-0.1c-0.7,1.3-2.2,2-3.7,2c-2.8,0-5-2.4-5-6.1   c0-4,2.5-6.3,5.3-6.3c1.5,0,2.6,0.5,3.1,1.3h0V10H40.8z M37.1,20.3c0-0.2,0-0.5,0-0.7c-0.2-1-1-1.8-2.1-1.8c-1.7,0-2.5,1.5-2.5,3.4   c0,2,1,3.3,2.5,3.3c1.1,0,1.9-0.7,2.1-1.8c0-0.3,0.1-0.6,0.1-0.8V20.3z"/>
	<path fill="#1D1D1B" d="M53.6,24.3c0,1.1,0,2.2,0.2,2.8h-3.3L50.2,26h-0.1c-0.8,0.9-2,1.4-3.4,1.4c-2.4,0-3.8-1.7-3.8-3.6   c0-3.1,2.8-4.5,6.9-4.5v-0.1c0-0.7-0.3-1.5-2.1-1.5c-1.2,0-2.5,0.4-3.3,0.9l-0.7-2.4c0.8-0.5,2.4-1.1,4.6-1.1   c3.9,0,5.2,2.3,5.2,5.1V24.3z M50,21.6c-1.9,0-3.4,0.5-3.4,1.9c0,0.9,0.6,1.4,1.4,1.4c0.9,0,1.7-0.6,1.9-1.4c0-0.2,0.1-0.4,0.1-0.6   V21.6z"/>
	<path fill="#1D1D1B" d="M67.7,25.4c0,2.3-0.5,4.1-1.8,5.3c-1.3,1.1-3,1.4-4.8,1.4c-1.6,0-3.2-0.3-4.2-0.9l0.7-2.8   c0.7,0.4,2,0.9,3.4,0.9c1.7,0,3.1-0.9,3.1-3.1v-0.7h0c-0.7,1-1.8,1.5-3.2,1.5c-2.9,0-5-2.4-5-5.7c0-3.8,2.4-6.2,5.4-6.2   c1.6,0,2.6,0.7,3.2,1.7h0l0.1-1.4h3.2c0,0.8-0.1,1.8-0.1,3.5V25.4z M64,20.1c0-0.2,0-0.5-0.1-0.7c-0.3-1-1-1.6-2-1.6   c-1.4,0-2.4,1.2-2.4,3.4c0,1.8,0.9,3.1,2.4,3.1c1,0,1.7-0.6,2-1.5c0.1-0.3,0.1-0.7,0.1-1V20.1z"/>
	<path fill="#1D1D1B" d="M82.3,21.1c0,4.3-3.1,6.3-6.2,6.3c-3.5,0-6.1-2.3-6.1-6.1c0-3.8,2.5-6.3,6.3-6.3   C79.8,15,82.3,17.5,82.3,21.1z M73.7,21.2c0,2,0.8,3.5,2.4,3.5c1.4,0,2.3-1.4,2.3-3.6c0-1.7-0.7-3.5-2.3-3.5   C74.4,17.7,73.7,19.5,73.7,21.2z"/>
	<path fill="#1D1D1B" d="M95.7,25.4c0,2.3-0.5,4.1-1.8,5.3c-1.3,1.1-3,1.4-4.8,1.4c-1.6,0-3.2-0.3-4.2-0.9l0.7-2.8   c0.7,0.4,2,0.9,3.4,0.9c1.7,0,3.1-0.9,3.1-3.1v-0.7h0c-0.7,1-1.8,1.5-3.2,1.5c-2.9,0-5-2.4-5-5.7c0-3.8,2.4-6.2,5.4-6.2   c1.6,0,2.6,0.7,3.2,1.7h0l0.1-1.4h3.2c0,0.8-0.1,1.8-0.1,3.5V25.4z M92,20.1c0-0.2,0-0.5-0.1-0.7c-0.3-1-1-1.6-2-1.6   c-1.4,0-2.4,1.2-2.4,3.4c0,1.8,0.9,3.1,2.4,3.1c1,0,1.7-0.6,2-1.5c0.1-0.3,0.1-0.7,0.1-1V20.1z"/>
	<path fill="#1D1D1B" d="M102.4,12.1c0,1-0.7,1.8-2,1.8c-1.2,0-1.9-0.8-1.9-1.8c0-1,0.8-1.8,2-1.8C101.7,10.2,102.4,11,102.4,12.1z    M98.6,27.1V15.3h3.7v11.8H98.6z"/>
	<path fill="#1D1D1B" d="M105.2,24c0.7,0.4,2.1,0.9,3.2,0.9c1.1,0,1.6-0.4,1.6-1c0-0.6-0.4-0.9-1.7-1.4c-2.5-0.8-3.4-2.1-3.4-3.5   c0-2.2,1.9-3.9,4.8-3.9c1.4,0,2.6,0.3,3.3,0.7l-0.6,2.5c-0.5-0.3-1.6-0.7-2.6-0.7c-0.9,0-1.4,0.4-1.4,0.9c0,0.6,0.5,0.9,1.9,1.4   c2.2,0.8,3.2,1.9,3.2,3.6c0,2.2-1.7,3.8-5.1,3.8c-1.5,0-2.9-0.4-3.8-0.8L105.2,24z"/>
	<path fill="#1D1D1B" d="M124.6,26.8c-0.7,0.3-1.9,0.6-3.3,0.6c-3.8,0-6.3-2.3-6.3-6c0-3.5,2.4-6.3,6.8-6.3c1,0,2,0.2,2.8,0.5   l-0.6,2.7c-0.4-0.2-1.1-0.4-2.1-0.4c-1.9,0-3.2,1.4-3.2,3.3c0,2.1,1.4,3.3,3.2,3.3c0.9,0,1.5-0.1,2.1-0.4L124.6,26.8z"/>
	<path fill="#1D1D1B" d="M126.6,10h3.7v6.8h0c0.4-0.5,0.9-0.9,1.4-1.2c0.6-0.3,1.2-0.5,1.9-0.5c2.3,0,4.1,1.6,4.1,5.2v6.9h-3.7v-6.5   c0-1.5-0.5-2.6-1.9-2.6c-1,0-1.6,0.6-1.8,1.3c-0.1,0.2-0.1,0.5-0.1,0.8v7h-3.7V10z"/>
	<path fill="#1D1D1B" d="M143.6,22.4c0.1,1.5,1.6,2.2,3.3,2.2c1.3,0,2.3-0.2,3.3-0.5l0.5,2.5c-1.2,0.5-2.7,0.7-4.3,0.7   c-4,0-6.3-2.3-6.3-6c0-3,1.9-6.3,6-6.3c3.8,0,5.3,3,5.3,5.9c0,0.6-0.1,1.2-0.1,1.4H143.6z M147.9,19.9c0-0.9-0.4-2.4-2.1-2.4   c-1.5,0-2.2,1.4-2.3,2.4H147.9z"/>
	<path fill="#1D1D1B" d="M162.2,10.9v6.3h6.1v-6.3h3.7v16.3h-3.7v-6.8h-6.1v6.8h-3.7V10.9H162.2z"/>
	<path fill="#1D1D1B" d="M186.7,21.1c0,4.3-3.1,6.3-6.2,6.3c-3.5,0-6.1-2.3-6.1-6.1c0-3.8,2.5-6.3,6.3-6.3   C184.2,15,186.7,17.5,186.7,21.1z M178.1,21.2c0,2,0.8,3.5,2.4,3.5c1.4,0,2.3-1.4,2.3-3.6c0-1.7-0.7-3.5-2.3-3.5   C178.8,17.7,178.1,19.5,178.1,21.2z"/>
	<path fill="#1D1D1B" d="M197.8,26.8c-0.7,0.3-1.9,0.6-3.3,0.6c-3.8,0-6.3-2.3-6.3-6c0-3.5,2.4-6.3,6.8-6.3c1,0,2,0.2,2.8,0.5   l-0.6,2.7c-0.4-0.2-1.1-0.4-2.1-0.4c-1.9,0-3.2,1.4-3.2,3.3c0,2.1,1.4,3.3,3.2,3.3c0.9,0,1.5-0.1,2.1-0.4L197.8,26.8z"/>
	<path fill="#1D1D1B" d="M199.8,10h3.7v6.8h0c0.4-0.5,0.9-0.9,1.4-1.2c0.6-0.3,1.2-0.5,1.9-0.5c2.3,0,4.1,1.6,4.1,5.2v6.9h-3.7v-6.5   c0-1.5-0.5-2.6-1.9-2.6c-1,0-1.6,0.6-1.8,1.3c-0.1,0.2-0.1,0.5-0.1,0.8v7h-3.7V10z"/>
	<path fill="#1D1D1B" d="M213.9,24c0.7,0.4,2.1,0.9,3.2,0.9c1.1,0,1.6-0.4,1.6-1c0-0.6-0.4-0.9-1.7-1.4c-2.5-0.8-3.4-2.1-3.4-3.5   c0-2.2,1.9-3.9,4.8-3.9c1.4,0,2.6,0.3,3.3,0.7l-0.6,2.5c-0.5-0.3-1.6-0.7-2.6-0.7c-0.9,0-1.4,0.4-1.4,0.9c0,0.6,0.5,0.9,1.9,1.4   c2.2,0.8,3.2,1.9,3.2,3.6c0,2.2-1.7,3.8-5.1,3.8c-1.5,0-2.9-0.4-3.8-0.8L213.9,24z"/>
	<path fill="#1D1D1B" d="M233.3,26.8c-0.7,0.3-1.9,0.6-3.3,0.6c-3.8,0-6.3-2.3-6.3-6c0-3.5,2.4-6.3,6.8-6.3c1,0,2,0.2,2.8,0.5   l-0.6,2.7c-0.4-0.2-1.1-0.4-2.1-0.4c-1.9,0-3.2,1.4-3.2,3.3c0,2.1,1.4,3.3,3.2,3.3c0.9,0,1.5-0.1,2.1-0.4L233.3,26.8z"/>
	<path fill="#1D1D1B" d="M235.3,10h3.7v6.8h0c0.4-0.5,0.9-0.9,1.4-1.2c0.6-0.3,1.2-0.5,1.9-0.5c2.3,0,4.1,1.6,4.1,5.2v6.9h-3.7v-6.5   c0-1.5-0.5-2.6-1.9-2.6c-1,0-1.6,0.6-1.8,1.3c-0.1,0.2-0.1,0.5-0.1,0.8v7h-3.7V10z"/>
	<path fill="#1D1D1B" d="M260.6,23.3c0,1.5,0,2.8,0.1,3.8h-3.2l-0.2-1.7h-0.1c-0.5,0.7-1.6,1.9-3.7,1.9c-2.4,0-4.2-1.5-4.2-5.1v-6.9   h3.7v6.3c0,1.7,0.6,2.8,1.9,2.8c1,0,1.6-0.7,1.8-1.3c0.1-0.2,0.1-0.5,0.1-0.8v-7h3.7V23.3z"/>
	<path fill="#1D1D1B" d="M263.5,10h3.7v17.1h-3.7V10z"/>
	<path fill="#1D1D1B" d="M273,22.4c0.1,1.5,1.6,2.2,3.3,2.2c1.3,0,2.3-0.2,3.3-0.5l0.5,2.5c-1.2,0.5-2.7,0.7-4.3,0.7   c-4,0-6.3-2.3-6.3-6c0-3,1.9-6.3,6-6.3c3.8,0,5.3,3,5.3,5.9c0,0.6-0.1,1.2-0.1,1.4H273z M277.3,19.9c0-0.9-0.4-2.4-2.1-2.4   c-1.5,0-2.2,1.4-2.3,2.4H277.3z"/>
	<path fill="#1D1D1B" d="M290.1,14h-4.4v-3.1h12.5V14h-4.4v13.2h-3.7V14z"/>
	<path fill="#1D1D1B" d="M299.8,10h3.7v6.8h0c0.4-0.5,0.9-0.9,1.4-1.2c0.6-0.3,1.2-0.5,1.9-0.5c2.3,0,4.1,1.6,4.1,5.2v6.9h-3.7v-6.5   c0-1.5-0.5-2.6-1.9-2.6c-1,0-1.6,0.6-1.8,1.3c-0.1,0.2-0.1,0.5-0.1,0.8v7h-3.7V10z"/>
	<path fill="#1D1D1B" d="M325.1,23.3c0,1.5,0,2.8,0.1,3.8H322l-0.2-1.7h-0.1c-0.5,0.7-1.6,1.9-3.7,1.9c-2.4,0-4.2-1.5-4.2-5.1v-6.9   h3.7v6.3c0,1.7,0.6,2.8,1.9,2.8c1,0,1.6-0.7,1.8-1.3c0.1-0.2,0.1-0.5,0.1-0.8v-7h3.7V23.3z"/>
	<path fill="#1D1D1B" d="M328,19.2c0-1.7,0-2.9-0.1-3.9h3.1l0.1,2.2h0.1c0.6-1.7,2-2.5,3.2-2.5c0.3,0,0.5,0,0.8,0.1v3.5   c-0.3,0-0.6-0.1-1-0.1c-1.4,0-2.3,0.7-2.5,1.9c0,0.2-0.1,0.5-0.1,0.8v6H328V19.2z"/>
	<path fill="#1D1D1B" d="M348.2,25.4c0,2.3-0.5,4.1-1.8,5.3c-1.3,1.1-3,1.4-4.8,1.4c-1.6,0-3.2-0.3-4.2-0.9l0.7-2.8   c0.7,0.4,2,0.9,3.4,0.9c1.7,0,3.1-0.9,3.1-3.1v-0.7h0c-0.7,1-1.8,1.5-3.2,1.5c-2.9,0-5-2.4-5-5.7c0-3.8,2.4-6.2,5.4-6.2   c1.6,0,2.6,0.7,3.2,1.7h0l0.1-1.4h3.2c0,0.8-0.1,1.8-0.1,3.5V25.4z M344.5,20.1c0-0.2,0-0.5-0.1-0.7c-0.3-1-1-1.6-2-1.6   c-1.4,0-2.4,1.2-2.4,3.4c0,1.8,0.9,3.1,2.4,3.1c1,0,1.7-0.6,2-1.5c0.1-0.3,0.1-0.7,0.1-1V20.1z"/>
	<path fill="#1D1D1B" d="M361,24.3c0,1.1,0,2.2,0.2,2.8h-3.3l-0.2-1.2h-0.1c-0.8,0.9-2,1.4-3.4,1.4c-2.4,0-3.8-1.7-3.8-3.6   c0-3.1,2.8-4.5,6.9-4.5v-0.1c0-0.7-0.3-1.5-2.1-1.5c-1.2,0-2.5,0.4-3.3,0.9l-0.7-2.4c0.8-0.5,2.4-1.1,4.6-1.1   c3.9,0,5.2,2.3,5.2,5.1V24.3z M357.4,21.6c-1.9,0-3.4,0.5-3.4,1.9c0,0.9,0.6,1.4,1.4,1.4c0.9,0,1.7-0.6,1.9-1.4   c0-0.2,0.1-0.4,0.1-0.6V21.6z"/>
	<path fill="#1D1D1B" d="M375,23.3c0,1.5,0,2.8,0.1,3.8h-3.2l-0.2-1.7h-0.1c-0.5,0.7-1.6,1.9-3.7,1.9c-2.4,0-4.2-1.5-4.2-5.1v-6.9   h3.7v6.3c0,1.7,0.6,2.8,1.9,2.8c1,0,1.6-0.7,1.8-1.3c0.1-0.2,0.1-0.5,0.1-0.8v-7h3.7V23.3z"/>
	<path fill="#1D1D1B" d="M377.5,25.2c0-1.3,0.9-2.2,2.2-2.2c1.3,0,2.1,0.9,2.1,2.2c0,1.3-0.9,2.2-2.2,2.2   C378.4,27.4,377.5,26.5,377.5,25.2z"/>
</g>
</svg>